<?xml version="1.0" encoding="UTF-8"?>
<svg version="1.1" xmlns="http://www.w3.org/2000/svg" width="519" height="501">
<path d="M0 0 C171.27 0 342.54 0 519 0 C519 165.33 519 330.66 519 501 C347.73 501 176.46 501 0 501 C0 335.67 0 170.34 0 0 Z " fill="#FEFEFD" transform="translate(0,0)"/>
<path d="M0 0 C1.71320938 -0.0099852 1.71320938 -0.0099852 3.46102905 -0.02017212 C5.869511 -0.03023641 8.27802048 -0.03499108 10.68652344 -0.03466797 C14.27849495 -0.03899333 17.86918642 -0.07524978 21.4609375 -0.11328125 C39.93756996 -0.20371144 59.38398823 0.29618327 76.7109375 7.3359375 C78.58576354 7.78848172 80.46062282 8.2408912 82.3359375 8.69140625 C93.08543944 11.60862306 102.86079309 16.23047974 112.7109375 21.3359375 C113.93435121 21.93736494 115.15963233 22.53500811 116.38671875 23.12890625 C123.18586391 26.42779779 129.53846029 29.97545644 135.7109375 34.3359375 C136.63132812 34.94824219 137.55171875 35.56054688 138.5 36.19140625 C142.06152303 38.57008769 145.58331676 40.99667197 149.0859375 43.4609375 C149.72660156 43.90308594 150.36726563 44.34523437 151.02734375 44.80078125 C152.6254263 45.92863908 154.17333845 47.12692126 155.7109375 48.3359375 C155.7109375 48.9959375 155.7109375 49.6559375 155.7109375 50.3359375 C156.3709375 50.3359375 157.0309375 50.3359375 157.7109375 50.3359375 C157.7109375 50.9959375 157.7109375 51.6559375 157.7109375 52.3359375 C158.27941406 52.57699219 158.84789062 52.81804687 159.43359375 53.06640625 C162.15882658 54.58561838 163.97784089 56.41012731 166.1484375 58.6484375 C166.93476563 59.4528125 167.72109375 60.2571875 168.53125 61.0859375 C169.61019531 62.1996875 169.61019531 62.1996875 170.7109375 63.3359375 C171.6390625 64.2640625 172.5671875 65.1921875 173.5234375 66.1484375 C174.2453125 66.8703125 174.9671875 67.5921875 175.7109375 68.3359375 C176.4740625 69.0578125 177.2371875 69.7796875 178.0234375 70.5234375 C179.7109375 72.3359375 179.7109375 72.3359375 179.7109375 74.3359375 C180.3709375 74.3359375 181.0309375 74.3359375 181.7109375 74.3359375 C181.7109375 74.9959375 181.7109375 75.6559375 181.7109375 76.3359375 C182.3709375 76.3359375 183.0309375 76.3359375 183.7109375 76.3359375 C187.7109375 81.74770221 187.7109375 81.74770221 187.7109375 84.3359375 C188.3709375 84.3359375 189.0309375 84.3359375 189.7109375 84.3359375 C189.7109375 84.9959375 189.7109375 85.6559375 189.7109375 86.3359375 C190.3709375 86.3359375 191.0309375 86.3359375 191.7109375 86.3359375 C192.3709375 88.3159375 193.0309375 90.2959375 193.7109375 92.3359375 C194.3709375 92.3359375 195.0309375 92.3359375 195.7109375 92.3359375 C196.3709375 94.3159375 197.0309375 96.2959375 197.7109375 98.3359375 C198.3709375 98.3359375 199.0309375 98.3359375 199.7109375 98.3359375 C200.3709375 100.3159375 201.0309375 102.2959375 201.7109375 104.3359375 C202.3709375 104.3359375 203.0309375 104.3359375 203.7109375 104.3359375 C218.99655945 134.09178098 218.99655945 134.09178098 223.7109375 148.3359375 C224.071875 149.32335937 224.4328125 150.31078125 224.8046875 151.328125 C227.94832962 160.11603366 229.91461761 169.19170825 231.7109375 178.3359375 C231.89333984 179.20025391 232.07574219 180.06457031 232.26367188 180.95507812 C233.99117936 189.92459208 234.02373676 198.74019614 233.9609375 207.8359375 C233.95783569 208.63207458 233.95473389 209.42821167 233.95153809 210.24847412 C233.86691581 228.76540946 232.44164353 246.38351462 227.7109375 264.3359375 C227.49953125 265.1403125 227.288125 265.9446875 227.0703125 266.7734375 C223.73260932 279.19279817 219.28858593 290.76177537 213.7109375 302.3359375 C213.30794434 303.18285156 212.90495117 304.02976562 212.48974609 304.90234375 C203.93176171 322.81639814 203.93176171 322.81639814 198.0859375 330.4609375 C196.70565732 332.34313775 195.69214604 334.22256526 194.7109375 336.3359375 C194.0509375 336.3359375 193.3909375 336.3359375 192.7109375 336.3359375 C192.3809375 337.6559375 192.0509375 338.9759375 191.7109375 340.3359375 C191.0509375 340.3359375 190.3909375 340.3359375 189.7109375 340.3359375 C189.4221875 341.0990625 189.1334375 341.8621875 188.8359375 342.6484375 C187.7109375 345.3359375 187.7109375 345.3359375 185.7109375 348.3359375 C185.0509375 348.3359375 184.3909375 348.3359375 183.7109375 348.3359375 C183.7109375 348.9959375 183.7109375 349.6559375 183.7109375 350.3359375 C183.0509375 350.3359375 182.3909375 350.3359375 181.7109375 350.3359375 C181.43894531 350.9134375 181.16695313 351.4909375 180.88671875 352.0859375 C177.95490928 357.69631044 174.00443038 362.80694225 168.7109375 366.3359375 C168.0509375 366.3359375 167.3909375 366.3359375 166.7109375 366.3359375 C166.7109375 366.9959375 166.7109375 367.6559375 166.7109375 368.3359375 C166.0509375 368.3359375 165.3909375 368.3359375 164.7109375 368.3359375 C164.7109375 368.9959375 164.7109375 369.6559375 164.7109375 370.3359375 C163.25 371.84375 163.25 371.84375 161.3359375 373.4609375 C160.70945312 373.99976563 160.08296875 374.53859375 159.4375 375.09375 C157.7109375 376.3359375 157.7109375 376.3359375 155.7109375 376.3359375 C155.7109375 376.9959375 155.7109375 377.6559375 155.7109375 378.3359375 C155.0509375 378.3359375 154.3909375 378.3359375 153.7109375 378.3359375 C153.7109375 378.9959375 153.7109375 379.6559375 153.7109375 380.3359375 C152.7209375 380.3359375 151.7309375 380.3359375 150.7109375 380.3359375 C150.7109375 380.9959375 150.7109375 381.6559375 150.7109375 382.3359375 C149.0609375 382.9959375 147.4109375 383.6559375 145.7109375 384.3359375 C145.7109375 384.9959375 145.7109375 385.6559375 145.7109375 386.3359375 C143.43018043 388.03373426 141.15621891 389.60570854 138.7734375 391.1484375 C137.7361853 391.82773315 137.7361853 391.82773315 136.67797852 392.52075195 C131.80101585 395.68960657 126.89307635 398.68900754 121.7109375 401.3359375 C120.65519531 401.87734375 119.59945313 402.41875 118.51171875 402.9765625 C97.09356736 413.81523097 97.09356736 413.81523097 87.7109375 416.3359375 C86.31078347 416.7289954 84.91106253 417.12359843 83.51171875 417.51953125 C66.34043218 422.32870756 49.8984216 426.63525079 31.9296875 426.671875 C30.75490845 426.6785318 29.58012939 426.6851886 28.36975098 426.69204712 C25.89918565 426.70210056 23.42859357 426.70686643 20.95800781 426.70654297 C17.2475722 426.71089454 13.53834944 426.74723652 9.828125 426.78515625 C-4.69867561 426.8533401 -18.15867629 425.68332399 -32.2890625 422.3359375 C-34.65940132 421.80933129 -37.03104383 421.28894247 -39.40284729 420.76898193 C-45.75756493 419.31004178 -51.75504555 416.75973938 -57.76953125 414.29296875 C-60.17520443 413.37918592 -62.55439075 412.68628774 -65.0390625 412.0234375 C-71.86420723 410.05196712 -78.04563885 406.66566241 -84.2890625 403.3359375 C-85.10173584 402.90845215 -85.91440918 402.4809668 -86.75170898 402.04052734 C-93.89151159 398.22844117 -100.70168594 394.00981456 -107.4765625 389.5859375 C-108.52392578 388.91433594 -109.57128906 388.24273437 -110.65039062 387.55078125 C-111.63845703 386.90753906 -112.62652344 386.26429688 -113.64453125 385.6015625 C-114.53809326 385.02180664 -115.43165527 384.44205078 -116.35229492 383.84472656 C-116.99142822 383.34682617 -117.63056152 382.84892578 -118.2890625 382.3359375 C-118.2890625 381.6759375 -118.2890625 381.0159375 -118.2890625 380.3359375 C-118.86140625 380.0678125 -119.43375 379.7996875 -120.0234375 379.5234375 C-122.36790884 378.29461114 -124.41311188 376.91071574 -126.5390625 375.3359375 C-127.24546875 374.8203125 -127.951875 374.3046875 -128.6796875 373.7734375 C-129.47632813 373.061875 -129.47632813 373.061875 -130.2890625 372.3359375 C-130.2890625 371.6759375 -130.2890625 371.0159375 -130.2890625 370.3359375 C-130.9490625 370.3359375 -131.6090625 370.3359375 -132.2890625 370.3359375 C-132.2890625 369.6759375 -132.2890625 369.0159375 -132.2890625 368.3359375 C-132.9490625 368.3359375 -133.6090625 368.3359375 -134.2890625 368.3359375 C-134.2890625 367.6759375 -134.2890625 367.0159375 -134.2890625 366.3359375 C-134.9490625 366.3359375 -135.6090625 366.3359375 -136.2890625 366.3359375 C-136.2890625 365.6759375 -136.2890625 365.0159375 -136.2890625 364.3359375 C-136.9490625 364.3359375 -137.6090625 364.3359375 -138.2890625 364.3359375 C-138.2890625 363.6759375 -138.2890625 363.0159375 -138.2890625 362.3359375 C-138.9490625 362.3359375 -139.6090625 362.3359375 -140.2890625 362.3359375 C-140.2890625 361.6759375 -140.2890625 361.0159375 -140.2890625 360.3359375 C-140.9490625 360.3359375 -141.6090625 360.3359375 -142.2890625 360.3359375 C-142.2890625 359.6759375 -142.2890625 359.0159375 -142.2890625 358.3359375 C-142.9490625 358.3359375 -143.6090625 358.3359375 -144.2890625 358.3359375 C-144.2890625 357.6759375 -144.2890625 357.0159375 -144.2890625 356.3359375 C-144.9490625 356.3359375 -145.6090625 356.3359375 -146.2890625 356.3359375 C-149.2890625 352.87439904 -149.2890625 352.87439904 -149.2890625 350.3359375 C-149.9490625 350.3359375 -150.6090625 350.3359375 -151.2890625 350.3359375 C-151.6190625 349.0159375 -151.9490625 347.6959375 -152.2890625 346.3359375 C-152.9490625 346.3359375 -153.6090625 346.3359375 -154.2890625 346.3359375 C-154.2890625 345.6759375 -154.2890625 345.0159375 -154.2890625 344.3359375 C-154.9490625 344.3359375 -155.6090625 344.3359375 -156.2890625 344.3359375 C-156.9490625 342.3559375 -157.6090625 340.3759375 -158.2890625 338.3359375 C-158.9490625 338.3359375 -159.6090625 338.3359375 -160.2890625 338.3359375 C-160.6190625 337.0159375 -160.9490625 335.6959375 -161.2890625 334.3359375 C-161.9490625 334.3359375 -162.6090625 334.3359375 -163.2890625 334.3359375 C-166.2890625 328.5859375 -166.2890625 328.5859375 -166.2890625 326.3359375 C-166.9490625 326.3359375 -167.6090625 326.3359375 -168.2890625 326.3359375 C-169.27320683 324.42182193 -170.25119599 322.5045408 -171.2265625 320.5859375 C-171.77183594 319.51859375 -172.31710938 318.45125 -172.87890625 317.3515625 C-175.48444233 311.77961278 -176.10466185 306.44425604 -175.2890625 300.3359375 C-173.92008594 296.81297683 -172.22175167 293.58009431 -170.2890625 290.3359375 C-169.6290625 290.3359375 -168.9690625 290.3359375 -168.2890625 290.3359375 C-168.0003125 289.4284375 -167.7115625 288.5209375 -167.4140625 287.5859375 C-166.52374474 285.01390842 -165.57411837 282.72246984 -164.2890625 280.3359375 C-163.6290625 280.3359375 -162.9690625 280.3359375 -162.2890625 280.3359375 C-162.03511719 279.48386719 -161.78117187 278.63179688 -161.51953125 277.75390625 C-160.20664542 274.10700118 -158.5464438 270.99944123 -156.6015625 267.6484375 C-156.24852051 267.0390332 -155.89547852 266.42962891 -155.53173828 265.80175781 C-152.78610044 261.09740923 -149.89602139 256.49393732 -146.94140625 251.91796875 C-144.29428407 247.78144922 -141.7977781 243.55726962 -139.2890625 239.3359375 C-138.28982995 237.6688106 -137.28982692 236.00214528 -136.2890625 234.3359375 C-135.79535156 233.51222656 -135.30164063 232.68851563 -134.79296875 231.83984375 C-133.78300351 230.15831721 -132.76993517 228.47865089 -131.75390625 226.80078125 C-128.47601766 221.37675589 -125.32572471 215.8986727 -122.2890625 210.3359375 C-121.6290625 210.3359375 -120.9690625 210.3359375 -120.2890625 210.3359375 C-120.0003125 209.4284375 -119.7115625 208.5209375 -119.4140625 207.5859375 C-118.52374474 205.01390842 -117.57411837 202.72246984 -116.2890625 200.3359375 C-115.6290625 200.3359375 -114.9690625 200.3359375 -114.2890625 200.3359375 C-114.03253906 199.46324219 -113.77601563 198.59054688 -113.51171875 197.69140625 C-112.26918221 194.28137785 -110.73769178 191.65883352 -108.7265625 188.6484375 C-106.8433889 185.81780441 -105.36578092 183.56609275 -104.2890625 180.3359375 C-99.5390625 181.2109375 -99.5390625 181.2109375 -97.2890625 182.3359375 C-98.1640625 190.0859375 -98.1640625 190.0859375 -99.2890625 192.3359375 C-103.70766475 217.62195332 -101.3178449 242.55759634 -89.60546875 265.65625 C-88.2890625 268.3359375 -88.2890625 268.3359375 -88.2890625 270.3359375 C-87.6290625 270.3359375 -86.9690625 270.3359375 -86.2890625 270.3359375 C-85.47339076 271.77164016 -84.66164157 273.20957184 -83.8515625 274.6484375 C-83.39910156 275.44894531 -82.94664062 276.24945313 -82.48046875 277.07421875 C-81.2890625 279.3359375 -81.2890625 279.3359375 -80.2890625 282.3359375 C-79.6290625 282.3359375 -78.9690625 282.3359375 -78.2890625 282.3359375 C-74.2890625 287.74770221 -74.2890625 287.74770221 -74.2890625 290.3359375 C-73.6290625 290.3359375 -72.9690625 290.3359375 -72.2890625 290.3359375 C-72.2890625 290.9959375 -72.2890625 291.6559375 -72.2890625 292.3359375 C-71.6290625 292.3359375 -70.9690625 292.3359375 -70.2890625 292.3359375 C-70.2890625 292.9959375 -70.2890625 293.6559375 -70.2890625 294.3359375 C-69.6290625 294.3359375 -68.9690625 294.3359375 -68.2890625 294.3359375 C-68.2890625 294.9959375 -68.2890625 295.6559375 -68.2890625 296.3359375 C-67.6290625 296.3359375 -66.9690625 296.3359375 -66.2890625 296.3359375 C-66.2890625 296.9959375 -66.2890625 297.6559375 -66.2890625 298.3359375 C-65.6290625 298.3359375 -64.9690625 298.3359375 -64.2890625 298.3359375 C-64.2890625 298.9959375 -64.2890625 299.6559375 -64.2890625 300.3359375 C-63.74121094 300.58085937 -63.19335938 300.82578125 -62.62890625 301.078125 C-59.78546019 302.60665527 -57.39884817 304.47702709 -54.8515625 306.4609375 C-40.60804773 317.30630932 -26.58126551 323.1830169 -9.2890625 327.3359375 C-8.57363281 327.51688965 -7.85820312 327.6978418 -7.12109375 327.88427734 C0.42158377 329.62214261 7.87024121 329.72085849 15.5859375 329.7109375 C16.26636108 329.71072601 16.94678467 329.71051453 17.64782715 329.71029663 C33.72245335 329.66057303 48.27957979 327.74183636 62.7109375 320.3359375 C63.97464334 319.87825732 65.24547184 319.43964344 66.5234375 319.0234375 C71.27747107 317.32981304 75.54803481 314.6738682 79.8762207 312.1159668 C82.47590569 310.58341086 84.83689528 309.29395157 87.7109375 308.3359375 C87.7109375 307.6759375 87.7109375 307.0159375 87.7109375 306.3359375 C89.3203125 304.8984375 89.3203125 304.8984375 91.4609375 303.3359375 C92.15703125 302.8203125 92.853125 302.3046875 93.5703125 301.7734375 C95.56195371 300.43598501 97.54121673 299.35238327 99.7109375 298.3359375 C99.7109375 297.6759375 99.7109375 297.0159375 99.7109375 296.3359375 C100.3709375 296.3359375 101.0309375 296.3359375 101.7109375 296.3359375 C101.7109375 295.6759375 101.7109375 295.0159375 101.7109375 294.3359375 C102.3709375 294.3359375 103.0309375 294.3359375 103.7109375 294.3359375 C103.7109375 293.6759375 103.7109375 293.0159375 103.7109375 292.3359375 C104.3709375 292.3359375 105.0309375 292.3359375 105.7109375 292.3359375 C106.0821875 291.5315625 106.0821875 291.5315625 106.4609375 290.7109375 C108.01746287 287.7535393 109.74529423 285.03869699 111.7109375 282.3359375 C112.3709375 282.3359375 113.0309375 282.3359375 113.7109375 282.3359375 C114.3709375 280.3559375 115.0309375 278.3759375 115.7109375 276.3359375 C116.3709375 276.3359375 117.0309375 276.3359375 117.7109375 276.3359375 C117.97261719 275.47742188 118.23429687 274.61890625 118.50390625 273.734375 C119.73797239 270.25981986 121.28363302 267.20908688 123.0234375 263.9609375 C126.9565519 256.35103784 129.3879599 248.55570439 131.7109375 240.3359375 C132.03191406 239.40007812 132.35289062 238.46421875 132.68359375 237.5 C140.70122386 212.06733147 132.99262887 182.13407541 121.2734375 159.2109375 C120.58828945 157.91611059 119.90218724 156.62178782 119.21484375 155.328125 C117.7109375 152.3359375 117.7109375 152.3359375 117.7109375 150.3359375 C117.0509375 150.3359375 116.3909375 150.3359375 115.7109375 150.3359375 C115.0509375 148.3559375 114.3909375 146.3759375 113.7109375 144.3359375 C113.0509375 144.3359375 112.3909375 144.3359375 111.7109375 144.3359375 C110.203125 142.65625 110.203125 142.65625 108.5859375 140.4609375 C108.04710937 139.74164063 107.50828125 139.02234375 106.953125 138.28125 C105.7109375 136.3359375 105.7109375 136.3359375 105.7109375 134.3359375 C105.0509375 134.3359375 104.3909375 134.3359375 103.7109375 134.3359375 C103.7109375 133.6759375 103.7109375 133.0159375 103.7109375 132.3359375 C103.0509375 132.3359375 102.3909375 132.3359375 101.7109375 132.3359375 C101.7109375 131.6759375 101.7109375 131.0159375 101.7109375 130.3359375 C101.0509375 130.3359375 100.3909375 130.3359375 99.7109375 130.3359375 C99.7109375 129.6759375 99.7109375 129.0159375 99.7109375 128.3359375 C99.0509375 128.3359375 98.3909375 128.3359375 97.7109375 128.3359375 C97.7109375 127.6759375 97.7109375 127.0159375 97.7109375 126.3359375 C96.9065625 125.9646875 96.9065625 125.9646875 96.0859375 125.5859375 C93.1285393 124.02941213 90.41369699 122.30158077 87.7109375 120.3359375 C87.7109375 119.6759375 87.7109375 119.0159375 87.7109375 118.3359375 C87.13214844 118.22636719 86.55335938 118.11679688 85.95703125 118.00390625 C83.44024506 117.25543592 81.88854956 116.19518932 79.7734375 114.6484375 C71.19327239 108.77779821 61.71676383 104.99120533 51.7109375 102.3359375 C50.59847656 102.01367188 49.48601562 101.69140625 48.33984375 101.359375 C20.9951504 93.64752392 -7.42497865 95.70640339 -33.2890625 107.3359375 C-34.6465555 108.30288659 -35.98676221 109.29584532 -37.2890625 110.3359375 C-38.90739408 110.996481 -40.52577192 111.65691171 -42.14453125 112.31640625 C-50.36486293 116.07161614 -50.36486293 116.07161614 -56.2890625 122.3359375 C-58.26795211 123.06287654 -60.26860808 123.73410001 -62.2890625 124.3359375 C-62.2890625 124.9959375 -62.2890625 125.6559375 -62.2890625 126.3359375 C-62.9490625 126.3359375 -63.6090625 126.3359375 -64.2890625 126.3359375 C-64.2890625 126.9959375 -64.2890625 127.6559375 -64.2890625 128.3359375 C-64.9490625 128.3359375 -65.6090625 128.3359375 -66.2890625 128.3359375 C-66.2890625 128.9959375 -66.2890625 129.6559375 -66.2890625 130.3359375 C-66.9490625 130.3359375 -67.6090625 130.3359375 -68.2890625 130.3359375 C-68.2890625 130.9959375 -68.2890625 131.6559375 -68.2890625 132.3359375 C-68.9490625 132.3359375 -69.6090625 132.3359375 -70.2890625 132.3359375 C-70.2890625 132.9959375 -70.2890625 133.6559375 -70.2890625 134.3359375 C-70.9490625 134.3359375 -71.6090625 134.3359375 -72.2890625 134.3359375 C-72.2890625 134.9959375 -72.2890625 135.6559375 -72.2890625 136.3359375 C-72.9490625 136.3359375 -73.6090625 136.3359375 -74.2890625 136.3359375 C-74.2890625 136.9959375 -74.2890625 137.6559375 -74.2890625 138.3359375 C-74.9490625 138.3359375 -75.6090625 138.3359375 -76.2890625 138.3359375 C-76.2890625 138.9959375 -76.2890625 139.6559375 -76.2890625 140.3359375 C-76.9490625 140.3359375 -77.6090625 140.3359375 -78.2890625 140.3359375 C-78.2890625 140.9959375 -78.2890625 141.6559375 -78.2890625 142.3359375 C-80.54901536 145.04788093 -82.92029979 146.77559098 -85.9765625 148.4609375 C-89.32967969 149.95210123 -89.32967969 149.95210123 -90.2890625 152.3359375 C-92.26795211 153.06287654 -94.26860808 153.73410001 -96.2890625 154.3359375 C-96.2890625 154.9959375 -96.2890625 155.6559375 -96.2890625 156.3359375 C-98.40625 158.28125 -98.40625 158.28125 -101.1640625 160.4609375 C-102.52144531 161.54761719 -102.52144531 161.54761719 -103.90625 162.65625 C-106.2890625 164.3359375 -106.2890625 164.3359375 -108.2890625 164.3359375 C-108.2890625 164.9959375 -108.2890625 165.6559375 -108.2890625 166.3359375 C-108.9490625 166.3359375 -109.6090625 166.3359375 -110.2890625 166.3359375 C-110.2890625 166.9959375 -110.2890625 167.6559375 -110.2890625 168.3359375 C-111.9390625 168.9959375 -113.5890625 169.6559375 -115.2890625 170.3359375 C-115.2890625 170.9959375 -115.2890625 171.6559375 -115.2890625 172.3359375 C-119.75965074 176.3359375 -119.75965074 176.3359375 -122.2890625 176.3359375 C-122.2890625 176.9959375 -122.2890625 177.6559375 -122.2890625 178.3359375 C-122.9490625 178.3359375 -123.6090625 178.3359375 -124.2890625 178.3359375 C-124.2890625 178.9959375 -124.2890625 179.6559375 -124.2890625 180.3359375 C-125.9390625 180.9959375 -127.5890625 181.6559375 -129.2890625 182.3359375 C-129.2890625 182.9959375 -129.2890625 183.6559375 -129.2890625 184.3359375 C-130.75 185.84375 -130.75 185.84375 -132.6640625 187.4609375 C-133.29054688 187.99976563 -133.91703125 188.53859375 -134.5625 189.09375 C-136.2890625 190.3359375 -136.2890625 190.3359375 -138.2890625 190.3359375 C-138.2890625 190.9959375 -138.2890625 191.6559375 -138.2890625 192.3359375 C-138.9490625 192.3359375 -139.6090625 192.3359375 -140.2890625 192.3359375 C-140.2890625 192.9959375 -140.2890625 193.6559375 -140.2890625 194.3359375 C-142.7640625 195.3259375 -142.7640625 195.3259375 -145.2890625 196.3359375 C-145.2890625 196.9959375 -145.2890625 197.6559375 -145.2890625 198.3359375 C-149.75965074 202.3359375 -149.75965074 202.3359375 -152.2890625 202.3359375 C-152.2890625 202.9959375 -152.2890625 203.6559375 -152.2890625 204.3359375 C-152.9490625 204.3359375 -153.6090625 204.3359375 -154.2890625 204.3359375 C-154.2890625 204.9959375 -154.2890625 205.6559375 -154.2890625 206.3359375 C-154.9490625 206.3359375 -155.6090625 206.3359375 -156.2890625 206.3359375 C-156.2890625 206.9959375 -156.2890625 207.6559375 -156.2890625 208.3359375 C-158.7640625 209.3259375 -158.7640625 209.3259375 -161.2890625 210.3359375 C-161.2890625 210.9959375 -161.2890625 211.6559375 -161.2890625 212.3359375 C-162.75 213.84375 -162.75 213.84375 -164.6640625 215.4609375 C-165.29054687 215.99976563 -165.91703125 216.53859375 -166.5625 217.09375 C-168.2890625 218.3359375 -168.2890625 218.3359375 -170.2890625 218.3359375 C-170.2890625 218.9959375 -170.2890625 219.6559375 -170.2890625 220.3359375 C-170.9490625 220.3359375 -171.6090625 220.3359375 -172.2890625 220.3359375 C-172.2890625 220.9959375 -172.2890625 221.6559375 -172.2890625 222.3359375 C-173.93909078 223.68980686 -175.6065012 225.02271892 -177.2890625 226.3359375 C-177.6190625 226.9959375 -177.9490625 227.6559375 -178.2890625 228.3359375 C-179.4028125 228.92375 -179.4028125 228.92375 -180.5390625 229.5234375 C-183.69928323 231.60631025 -185.17282008 233.75891766 -187.17578125 236.91015625 C-187.54316406 237.38066406 -187.91054687 237.85117187 -188.2890625 238.3359375 C-188.9490625 238.3359375 -189.6090625 238.3359375 -190.2890625 238.3359375 C-190.5778125 239.0990625 -190.8665625 239.8621875 -191.1640625 240.6484375 C-192.2890625 243.3359375 -192.2890625 243.3359375 -194.2890625 246.3359375 C-194.9490625 246.3359375 -195.6090625 246.3359375 -196.2890625 246.3359375 C-200.59147933 234.29052406 -200.69721354 221.60521146 -200.6640625 208.9609375 C-200.66351868 208.17557617 -200.66297485 207.39021484 -200.66241455 206.58105469 C-200.58245375 181.33135288 -195.64886594 157.41830656 -185.2890625 134.3359375 C-184.75770759 133.07405399 -184.22924649 131.81094945 -183.703125 130.546875 C-180.29498939 122.43617706 -176.46989598 114.7986424 -171.98828125 107.2265625 C-170.65537639 104.95909216 -169.4226305 102.70664824 -168.2890625 100.3359375 C-167.6290625 100.3359375 -166.9690625 100.3359375 -166.2890625 100.3359375 C-165.6290625 98.3559375 -164.9690625 96.3759375 -164.2890625 94.3359375 C-163.6290625 94.3359375 -162.9690625 94.3359375 -162.2890625 94.3359375 C-161.6290625 92.3559375 -160.9690625 90.3759375 -160.2890625 88.3359375 C-159.6290625 88.3359375 -158.9690625 88.3359375 -158.2890625 88.3359375 C-158.0003125 87.7584375 -157.7115625 87.1809375 -157.4140625 86.5859375 C-156.37239583 84.50260417 -155.33072917 82.41927083 -154.2890625 80.3359375 C-153.6290625 80.3359375 -152.9690625 80.3359375 -152.2890625 80.3359375 C-152.2890625 79.6759375 -152.2890625 79.0159375 -152.2890625 78.3359375 C-151.6290625 78.3359375 -150.9690625 78.3359375 -150.2890625 78.3359375 C-149.9178125 77.50835937 -149.9178125 77.50835937 -149.5390625 76.6640625 C-148.04671776 73.88457043 -146.25233727 71.5544668 -144.2890625 69.0859375 C-143.5878125 68.19390625 -142.8865625 67.301875 -142.1640625 66.3828125 C-141.5453125 65.70734375 -140.9265625 65.031875 -140.2890625 64.3359375 C-139.6290625 64.3359375 -138.9690625 64.3359375 -138.2890625 64.3359375 C-138.2890625 63.6759375 -138.2890625 63.0159375 -138.2890625 62.3359375 C-137.6290625 62.3359375 -136.9690625 62.3359375 -136.2890625 62.3359375 C-136.2890625 61.6759375 -136.2890625 61.0159375 -136.2890625 60.3359375 C-135.6290625 60.3359375 -134.9690625 60.3359375 -134.2890625 60.3359375 C-134.2890625 59.6759375 -134.2890625 59.0159375 -134.2890625 58.3359375 C-132.57573496 56.75060048 -130.79217203 55.24052535 -128.9765625 53.7734375 C-127.49736328 52.56494141 -127.49736328 52.56494141 -125.98828125 51.33203125 C-123.2890625 49.3359375 -123.2890625 49.3359375 -120.2890625 48.3359375 C-120.2890625 47.6759375 -120.2890625 47.0159375 -120.2890625 46.3359375 C-118.87133789 45.10253906 -118.87133789 45.10253906 -116.88671875 43.7265625 C-116.16564941 43.22205566 -115.44458008 42.71754883 -114.70166016 42.19775391 C-113.92612793 41.66585449 -113.1505957 41.13395508 -112.3515625 40.5859375 C-111.1766626 39.77068604 -111.1766626 39.77068604 -109.97802734 38.93896484 C-107.75270718 37.39821625 -105.52126784 35.8666839 -103.2890625 34.3359375 C-102.38285156 33.70429687 -101.47664063 33.07265625 -100.54296875 32.421875 C-93.77952245 27.78053754 -86.65070159 23.44586632 -78.9140625 20.6484375 C-75.43490344 19.54156442 -75.43490344 19.54156442 -73.17578125 17.97265625 C-69.13171753 15.67974326 -64.8716957 14.31715237 -60.4765625 12.8359375 C-58.74059357 12.24304133 -57.00491263 11.6493012 -55.26953125 11.0546875 C-54.00302734 10.62422119 -54.00302734 10.62422119 -52.7109375 10.18505859 C-50.50873788 9.41295675 -48.34501234 8.57802548 -46.17578125 7.71875 C-42.1619843 6.19517641 -38.13963057 5.40859227 -33.9140625 4.7109375 C-28.95974365 3.99752688 -28.95974365 3.99752688 -24.2890625 2.3359375 C-16.1983138 0.56300085 -8.26006457 0.0173506 0 0 Z " fill="#F8C302" transform="translate(247.2890625,25.6640625)"/>
<path d="M0 0 C4.4731068 1.4910356 8.18833324 2.98169599 12.33984375 5.08984375 C12.93443893 5.3899234 13.52903412 5.69000305 14.14164734 5.99917603 C15.41413644 6.64160472 16.68576784 7.28573467 17.956604 7.931427 C21.33745933 9.64852232 24.72523853 11.35182816 28.11328125 13.0546875 C28.79130798 13.39566971 29.46933472 13.73665192 30.16790771 14.08796692 C35.95086707 16.98963433 41.77622668 19.79589738 47.625 22.5625 C57.81318429 27.38403087 67.89149807 32.41252867 77.95166016 37.49438477 C79.65394775 38.35181274 79.65394775 38.35181274 81.390625 39.2265625 C82.40157227 39.73783691 83.41251953 40.24911133 84.45410156 40.77587891 C87.02833593 42.07950073 87.02833593 42.07950073 90 43 C90 43.66 90 44.32 90 45 C89.20456787 45.36013184 88.40913574 45.72026367 87.58959961 46.09130859 C83.70492391 47.85112546 79.8209687 49.61252143 75.9375 51.375 C75.21370148 51.70346924 74.48990295 52.03193848 73.74417114 52.37036133 C64.71217604 56.47127129 55.69123125 60.59518389 46.6875 64.7578125 C45.40329918 65.3514711 45.40329918 65.3514711 44.09315491 65.9571228 C39.9285607 67.88317469 35.76521254 69.81187446 31.60327148 71.74365234 C24.08465138 75.22902282 16.55257234 78.68091816 8.97265625 82.03125 C8.29722275 82.33244751 7.62178925 82.63364502 6.92588806 82.94396973 C2.23578803 85 2.23578803 85 0 85 C0 56.95 0 28.9 0 0 Z " fill="#030303" transform="translate(230,195)"/>
</svg>
